<?xml version="1.0" standalone="no"?>
<!DOCTYPE svg PUBLIC "-//W3C//DTD SVG 20010904//EN"
 "http://www.w3.org/TR/2001/REC-SVG-20010904/DTD/svg10.dtd">
<svg version="1.0" xmlns="http://www.w3.org/2000/svg"
 width="562.000000pt" height="450.000000pt" viewBox="0 0 562.000000 450.000000"
 preserveAspectRatio="xMidYMid meet">
<g transform="translate(0.000000,450.000000) scale(0.100000,-0.100000)"
fill="#000000" stroke="none">
<path d="M50 2275 l0 -2225 2783 0 2782 0 -3 2225 c-1 1337 -6 2225 -11 2225
-6 0 -9 -876 -9 -2201 0 -1324 -4 -2205 -9 -2210 -12 -12 -5023 -17 -5023 -6
0 5 -8 6 -17 4 -50 -14 -95 -18 -88 -8 3 7 -3 11 -15 11 -12 0 -18 -4 -15 -10
4 -6 -5 -9 -19 -8 -15 1 -26 7 -26 13 0 5 -4 4 -9 -4 -7 -11 -28 -13 -105 -7
-52 3 -103 9 -113 12 -15 5 -16 4 -3 -5 12 -9 5 -11 -30 -9 l-44 3 -1 542 c-1
351 2 540 8 536 6 -3 7 -1 4 4 -12 19 -18 373 -7 393 6 11 6 21 1 24 -5 3 -7
61 -4 128 5 148 5 113 3 343 0 105 0 214 2 243 2 28 1 52 -2 52 -3 0 -5 440
-5 978 0 1036 -2 1182 -16 1182 -5 0 -9 -938 -9 -2225z"/>
<path d="M3654 4238 c10 -6 22 -6 26 -2 5 5 -3 10 -18 11 -22 1 -24 0 -8 -9z"/>
<path d="M3595 4203 c-27 -8 -58 -22 -68 -31 -11 -9 -26 -17 -35 -17 -8 0 -17
-7 -19 -15 -4 -13 -3 -13 6 0 6 8 11 10 11 5 0 -13 -37 -45 -43 -38 -3 3 -3
-5 0 -18 4 -15 3 -20 -5 -15 -8 5 -12 -1 -12 -18 0 -13 -5 -37 -10 -52 -6 -15
-7 -31 -3 -35 4 -4 6 -61 3 -126 -3 -65 -3 -172 0 -238 3 -66 3 -124 -1 -128
-4 -5 -3 -24 1 -43 4 -19 4 -36 0 -39 -4 -3 -6 -33 -4 -67 8 -122 10 -460 3
-464 -4 -2 -9 -13 -12 -25 -4 -14 -2 -19 7 -16 10 4 12 -2 6 -27 -4 -17 -3
-42 2 -55 9 -26 5 -167 -7 -220 -6 -25 -5 -32 3 -27 16 10 16 -56 0 -72 -9 -9
-9 -12 0 -12 11 0 8 -122 -4 -141 -3 -5 0 -9 5 -9 14 0 14 -66 0 -92 -8 -16
-8 -23 2 -30 11 -7 11 -11 2 -15 -17 -6 -16 -61 1 -94 12 -23 11 -27 -6 -38
-10 -6 -16 -17 -12 -23 4 -7 3 -8 -4 -4 -11 7 -17 -6 -13 -28 1 -5 -4 -4 -12
2 -10 9 -20 5 -43 -16 -17 -15 -22 -21 -12 -13 15 12 21 12 31 1 7 -8 8 -11 1
-7 -7 4 -18 -1 -25 -10 -12 -14 -12 -16 0 -8 10 5 12 4 7 -3 -4 -7 -13 -12
-20 -12 -7 0 -20 -8 -29 -17 -15 -17 -17 -22 -17 -40 0 -5 -4 -1 -10 7 -6 9
-5 20 3 30 9 12 9 13 -3 2 -8 -7 -14 -25 -15 -40 0 -15 -6 -28 -12 -28 -7 -1
-16 -3 -20 -4 -5 -1 -12 -2 -17 -1 -5 1 -5 -4 1 -11 7 -9 4 -18 -10 -32 -17
-16 -19 -17 -14 -3 4 10 1 17 -6 17 -8 0 -8 3 -2 8 15 10 19 1142 5 1142 -5 0
-10 10 -9 23 0 21 1 21 9 2 5 -12 8 58 7 178 -1 108 -4 197 -7 197 -3 0 -7 12
-8 27 -7 88 -99 177 -195 189 -12 1 -31 6 -41 10 -15 6 -17 4 -11 -6 8 -13
-19 -11 -70 5 -14 5 -13 2 5 -9 l25 -16 -26 6 c-21 4 -27 1 -32 -16 -3 -12
-10 -19 -16 -15 -6 3 -11 1 -11 -4 0 -6 -7 -11 -16 -11 -9 0 -12 -5 -8 -12 5
-8 2 -9 -10 -5 -11 5 -15 3 -10 -5 5 -8 2 -9 -11 -4 -15 5 -16 4 -5 -9 9 -11
9 -15 1 -15 -7 0 -10 -4 -7 -9 4 -5 1 -11 -4 -13 -6 -2 -15 -19 -19 -38 -5
-19 -12 -44 -17 -54 -4 -12 -4 -17 2 -13 6 3 10 -55 11 -151 0 -94 -2 -143 -7
-122 l-7 35 -2 -31 c0 -17 2 -34 6 -37 12 -13 11 -1517 -1 -1518 -6 0 -22 -2
-36 -5 -52 -8 -184 -4 -194 6 -7 7 -11 66 -11 153 0 78 -4 147 -8 154 -4 6 -4
13 1 15 4 1 5 40 2 86 -3 45 -2 82 3 82 13 0 8 188 -5 192 -10 4 -10 10 0 32
7 17 9 33 4 40 -7 9 -7 54 0 211 0 6 -3 39 -6 74 -3 44 -1 70 7 80 9 12 9 13
0 7 -10 -5 -13 4 -13 36 0 33 3 40 11 28 9 -12 10 -11 4 5 -11 30 -12 59 -2
66 8 6 -23 71 -49 100 -8 8 -14 20 -14 25 0 5 5 2 11 -6 9 -13 10 -13 6 0 -2
8 -12 14 -22 12 -13 -3 -16 1 -13 16 4 15 1 18 -13 15 -11 -3 -29 1 -41 9 -35
23 -113 31 -169 18 -27 -7 -49 -16 -49 -20 0 -4 -7 -11 -16 -14 -8 -3 -12 -2
-9 3 3 5 0 13 -6 17 -8 5 -9 3 -4 -6 6 -10 4 -12 -10 -6 -14 5 -16 4 -7 -7 12
-14 7 -27 -10 -27 -5 0 -6 5 -2 12 4 7 3 8 -5 4 -6 -4 -9 -11 -6 -16 3 -5 -6
-20 -20 -34 -14 -14 -25 -34 -25 -46 0 -11 -6 -20 -12 -20 -10 0 -10 -2 0 -8
10 -7 10 -15 2 -36 -6 -17 -7 -34 -1 -44 5 -10 5 -26 0 -41 -6 -13 -7 -32 -3
-40 3 -9 8 -119 11 -245 3 -180 1 -231 -9 -237 -10 -7 -10 -9 0 -9 6 0 12 -9
12 -20 0 -11 -6 -20 -12 -20 -9 0 -10 -2 -2 -8 13 -8 18 -143 6 -151 -5 -3 -6
-46 -2 -96 3 -49 5 -181 4 -293 -2 -193 -1 -203 20 -229 11 -15 21 -36 21 -47
0 -11 6 -21 14 -24 9 -3 11 0 5 9 -7 12 -5 12 9 1 13 -11 14 -17 5 -32 -7 -10
-16 -16 -20 -14 -5 3 -5 10 -2 16 4 7 2 8 -5 4 -9 -6 -9 -11 0 -23 12 -13 14
-13 24 1 7 9 15 13 18 9 4 -3 2 -11 -3 -18 -7 -8 -5 -12 5 -12 7 0 13 3 12 6
-1 3 3 6 8 6 6 0 9 -4 7 -8 -1 -5 2 -6 8 -2 6 4 17 2 24 -4 17 -15 136 -20
166 -8 14 6 29 9 33 8 5 -1 5 4 1 10 -5 8 -1 10 14 7 15 -4 19 -2 15 9 -3 8 0
13 8 11 8 -2 13 3 11 10 -1 8 2 11 7 7 6 -3 20 5 32 19 12 14 25 23 30 21 4
-3 5 3 3 13 -3 9 -1 28 5 42 5 14 10 20 10 14 1 -17 182 -19 193 -2 5 9 10 10
16 2 4 -6 14 -13 23 -16 14 -6 16 -36 15 -262 -1 -141 2 -256 6 -256 5 0 8 -8
8 -19 0 -10 10 -31 22 -47 13 -15 17 -25 11 -21 -6 4 -15 2 -19 -4 -4 -7 -3
-9 4 -5 5 3 24 -6 41 -20 17 -14 31 -23 31 -19 0 3 6 0 13 -7 8 -7 12 -22 10
-33 -2 -11 -1 -14 3 -7 3 6 11 9 16 6 7 -4 8 -2 4 4 -4 7 -3 12 3 12 5 0 12
-3 14 -7 3 -5 25 -7 49 -7 23 1 51 -3 62 -8 12 -7 16 -7 12 0 -3 5 3 12 14 15
11 3 20 1 20 -4 0 -5 4 -9 10 -9 5 0 7 8 3 18 -3 9 -3 14 1 10 5 -4 17 2 29
13 11 10 26 19 33 19 6 0 19 16 28 35 9 19 19 35 22 35 3 0 2 -4 -1 -10 -3 -5
-1 -10 5 -10 7 0 9 8 5 19 -3 11 -2 22 4 25 5 3 7 16 4 29 -4 18 -3 19 7 7 10
-12 11 -11 7 8 -3 13 0 22 6 22 9 0 9 2 1 8 -16 10 -17 652 -1 652 7 0 6 4 -3
10 -13 8 -11 12 8 26 15 10 22 23 19 34 -5 21 36 66 52 56 11 -7 34 28 25 37
-8 8 19 3 33 -6 9 -6 11 -3 6 9 -5 13 -3 15 7 9 8 -5 11 -3 8 6 -3 8 -11 13
-17 11 -7 -1 -10 2 -6 8 3 6 11 8 16 5 5 -4 9 -2 9 4 0 6 8 8 18 4 15 -5 15
-4 2 8 -8 8 -14 13 -11 12 2 -1 12 8 23 20 l19 22 -11 -25 c-11 -24 -10 -24 4
-6 34 42 38 8 42 -321 2 -216 0 -327 -8 -346 -8 -21 -8 -31 1 -40 14 -14 15
-57 1 -57 -5 0 -10 -5 -10 -11 0 -5 4 -7 10 -4 6 4 9 -32 8 -97 -1 -57 -1
-136 1 -177 1 -52 -2 -77 -11 -82 -10 -7 -10 -9 0 -9 8 0 12 -21 12 -69 0 -46
-4 -71 -12 -74 -10 -4 -10 -6 0 -6 7 -1 12 -16 12 -38 0 -21 5 -56 11 -78 13
-49 13 -55 5 -80 -5 -15 -4 -15 5 3 7 12 16 22 21 22 5 0 7 -4 3 -9 -3 -5 -1
-12 5 -16 6 -4 8 -11 5 -16 -3 -5 0 -6 8 -3 9 3 21 -4 29 -15 8 -12 18 -18 21
-14 4 3 7 1 7 -5 0 -6 14 -13 30 -17 17 -4 30 -12 30 -18 0 -7 4 -6 10 3 5 8
10 10 10 4 0 -6 21 -11 46 -11 32 -1 42 2 33 8 -9 6 -4 7 15 3 21 -5 27 -4 22
5 -4 6 -1 11 8 11 9 0 30 9 48 20 18 11 29 20 25 20 -5 0 -2 7 7 15 20 20 30
19 22 -3 -4 -11 0 -9 14 7 12 14 18 31 15 42 -4 11 -2 19 5 19 6 0 9 4 6 9 -4
5 -1 11 5 13 8 3 11 39 11 108 -1 58 -2 107 -3 110 -1 3 -1 8 0 12 0 4 1 121
1 260 0 139 0 273 1 298 2 47 1 291 -1 300 -1 3 0 113 1 245 1 132 2 251 2
265 -5 155 -4 302 0 307 4 3 2 14 -3 24 -8 14 -5 24 14 43 24 27 43 35 30 14
-6 -9 -3 -9 9 0 9 8 22 10 28 6 8 -5 9 -3 5 5 -5 7 -14 10 -20 8 -25 -10 -12
23 23 55 19 18 29 25 22 16 -8 -11 -9 -18 -3 -18 6 0 15 12 20 28 9 22 11 23
12 7 2 -17 3 -16 9 5 4 14 14 24 21 22 11 -2 10 0 -1 14 -8 10 -9 15 -3 11 7
-4 19 4 28 18 9 14 24 25 32 25 14 0 15 2 3 17 -12 15 -12 16 4 10 11 -4 17
-2 17 8 0 8 16 26 35 41 19 14 33 30 30 34 -3 5 0 12 6 16 8 4 9 3 5 -4 -4 -7
-2 -12 4 -12 7 0 10 7 7 14 -4 10 14 34 49 65 29 27 54 55 54 62 0 10 3 10 12
1 14 -14 32 -16 24 -3 -3 4 12 3 33 -2 30 -8 44 -7 69 6 18 8 30 12 28 8 -3
-4 1 -8 8 -8 8 0 12 6 9 12 -2 7 3 15 11 18 9 4 14 1 12 -6 -1 -7 2 -2 8 11 5
12 16 22 24 22 7 0 10 5 7 10 -3 6 -2 10 4 10 12 0 27 47 22 69 -1 7 2 10 7 7
13 -8 10 27 -3 36 -7 5 -6 8 0 8 6 0 11 9 12 20 1 11 -2 18 -6 15 -14 -8 -20
49 -8 65 10 13 10 13 -4 2 -14 -10 -18 -10 -23 3 -3 9 -10 14 -15 11 -5 -3
-12 1 -15 10 -3 8 -11 12 -17 8 -7 -4 -9 -3 -5 4 3 6 2 13 -4 17 -5 3 -10 2
-10 -4 0 -6 -7 -8 -15 -5 -8 4 -15 10 -15 16 0 5 4 7 8 4 5 -3 9 1 9 9 0 10
-4 12 -12 5 -7 -6 -35 -8 -63 -6 -36 3 -52 0 -56 -10 -3 -8 -12 -11 -21 -8 -8
3 -15 1 -15 -5 0 -12 -48 -36 -64 -32 -5 1 -3 -6 5 -15 8 -10 9 -15 3 -11 -7
4 -14 -3 -18 -18 -4 -14 -10 -24 -15 -21 -4 3 -8 0 -9 -7 -8 -58 -7 -95 1
-108 7 -12 4 -24 -13 -47 -13 -18 -28 -32 -32 -32 -5 0 -7 4 -4 9 3 4 -4 8
-16 7 -14 -1 -22 -9 -25 -26 -2 -18 -1 -21 6 -10 5 8 7 18 5 22 -3 4 -1 8 5 8
5 0 13 -5 17 -11 8 -14 -46 -71 -63 -65 -8 3 -10 -1 -6 -11 5 -12 3 -14 -7 -8
-8 5 -11 4 -7 -2 4 -6 1 -16 -7 -22 -8 -7 -16 -8 -18 -4 -3 4 -4 3 -2 -4 3
-15 -30 -45 -40 -36 -4 5 -6 3 -4 -4 2 -6 -1 -11 -7 -11 -5 0 -9 4 -8 8 1 4
-3 10 -10 13 -7 3 -13 -3 -13 -13 0 -10 4 -17 7 -14 4 2 10 0 13 -4 9 -15 -41
-55 -56 -46 -9 5 -8 2 2 -11 14 -17 13 -18 -2 -13 -21 8 -55 -26 -37 -38 8 -5
10 -3 4 6 -5 9 -4 11 4 6 6 -4 9 -12 5 -17 -3 -6 -8 -8 -12 -5 -3 3 -10 -1
-16 -9 -13 -18 -14 384 -1 405 5 8 4 11 -1 7 -6 -3 -9 83 -7 231 1 130 3 242
3 247 0 6 -3 72 -6 148 -3 94 -2 143 6 152 7 8 7 14 1 17 -11 3 -18 224 -9
234 4 3 2 21 -3 40 -7 22 -6 40 1 54 9 16 8 19 -6 13 -14 -5 -15 -3 -5 16 9
17 9 21 -1 19 -7 -2 -12 3 -10 10 1 8 -2 11 -7 8 -5 -4 -17 14 -26 39 -11 26
-22 42 -28 38 -8 -5 -7 -8 1 -11 7 -2 12 -9 12 -15 -1 -7 -10 -1 -20 12 -11
13 -20 20 -20 17 0 -4 -10 0 -22 8 -12 9 -32 16 -43 16 -15 0 -16 3 -7 9 23
14 -69 9 -123 -6z m151 -32 c22 -10 55 -34 73 -52 62 -66 61 -53 61 -913 l0
-781 61 62 c34 35 65 61 69 58 5 -3 12 0 16 6 4 7 3 9 -4 5 -6 -4 -10 1 -9 13
0 11 4 18 7 16 4 -2 66 56 139 129 119 120 132 135 122 154 -35 66 14 173 96
208 42 18 98 18 116 -1 8 -8 17 -11 21 -8 3 4 22 -8 40 -26 65 -63 70 -160 11
-223 -44 -48 -81 -61 -151 -55 l-62 6 -67 -69 c-36 -38 -70 -69 -73 -67 -9 3
-102 -75 -102 -85 0 -4 5 -8 10 -8 6 0 9 3 8 8 -2 4 17 25 41 47 100 90 16 -9
-206 -243 l-82 -87 -1 -971 c0 -1083 5 -1013 -71 -1078 -52 -44 -98 -60 -158
-54 -47 5 -109 28 -101 39 3 3 -7 22 -22 41 -19 25 -24 38 -15 41 7 3 6 6 -5
6 -9 1 -19 7 -21 14 -3 7 -6 7 -6 1 -1 -6 13 -30 29 -52 17 -23 25 -42 20 -42
-13 0 -71 90 -65 101 3 4 1 10 -5 14 -7 4 -10 259 -10 756 l0 750 -147 -152
-148 -152 -5 -387 -5 -387 -28 -36 c-50 -66 -92 -91 -162 -95 -79 -5 -126 10
-171 54 -62 62 -64 77 -64 378 l0 271 -154 -3 -154 -3 -8 -32 c-4 -18 -7 -38
-7 -44 0 -7 -3 -11 -7 -8 -4 2 -16 -5 -26 -16 -35 -39 -109 -69 -168 -69 -30
0 -58 5 -62 11 -3 6 -15 9 -25 6 -11 -3 -17 -2 -14 2 2 4 -9 18 -25 29 -16 12
-41 42 -55 66 l-25 43 2 731 3 730 31 39 c47 59 97 83 172 83 38 0 78 -6 98
-16 46 -22 100 -85 113 -131 7 -25 11 -258 11 -678 l0 -640 150 0 150 0 0 958
c0 1067 -5 997 68 1057 53 43 105 58 177 48 76 -10 129 -49 131 -97 1 -18 5
-35 9 -39 4 -4 5 5 1 21 -10 40 8 33 25 -10 11 -31 14 -189 16 -858 2 -451 3
-823 3 -826 0 -3 64 60 143 140 78 80 145 147 150 149 4 2 7 467 7 1033 0
1098 -2 1067 47 1117 26 27 75 59 98 65 44 11 112 6 151 -12z m-579 -1093 c-2
-13 -4 -3 -4 22 0 25 2 35 4 23 2 -13 2 -33 0 -45z m-730 -1040 c-2 -18 -4 -6
-4 27 0 33 2 48 4 33 2 -15 2 -42 0 -60z m999 -280 c4 -7 3 -8 -4 -4 -16 10
-15 -7 1 -23 9 -11 7 -10 -10 0 -26 16 -29 25 -10 32 6 3 13 6 14 6 1 1 5 -4
9 -11z m-243 -233 c-3 -9 -8 -14 -10 -11 -3 3 -2 9 2 15 9 16 15 13 8 -4z
m679 -1287 c-7 -7 -12 -8 -12 -2 0 14 12 26 19 19 2 -3 -1 -11 -7 -17z"/>
<path d="M3650 4170 c0 -5 7 -7 15 -4 8 4 15 8 15 10 0 2 -7 4 -15 4 -8 0 -15
-4 -15 -10z"/>
<path d="M3578 4153 c7 -3 16 -2 19 1 4 3 -2 6 -13 5 -11 0 -14 -3 -6 -6z"/>
<path d="M3768 4133 c6 -2 9 -10 6 -15 -4 -7 -2 -8 5 -4 13 9 5 26 -12 25 -9
0 -8 -2 1 -6z"/>
<path d="M3797 4104 c-3 -5 1 -15 9 -22 16 -14 18 -5 5 17 -5 7 -11 9 -14 5z"/>
<path d="M3472 4045 c-7 -14 -11 -54 -10 -88 l1 -62 7 70 c3 39 10 78 14 88 5
9 6 17 4 17 -3 0 -10 -11 -16 -25z"/>
<path d="M3500 4051 c0 -6 4 -13 10 -16 6 -3 7 1 4 9 -7 18 -14 21 -14 7z"/>
<path d="M3851 3974 c0 -11 3 -14 6 -6 3 7 2 16 -1 19 -3 4 -6 -2 -5 -13z"/>
<path d="M3853 3890 c0 -30 2 -43 4 -27 2 15 2 39 0 55 -2 15 -4 2 -4 -28z"/>
<path d="M3463 3815 c0 -27 2 -38 4 -22 2 15 2 37 0 50 -2 12 -4 0 -4 -28z"/>
<path d="M3851 3764 c0 -11 3 -14 6 -6 3 7 2 16 -1 19 -3 4 -6 -2 -5 -13z"/>
<path d="M3463 3655 c0 -27 2 -38 4 -22 2 15 2 37 0 50 -2 12 -4 0 -4 -28z"/>
<path d="M3851 3684 c0 -11 3 -14 6 -6 3 7 2 16 -1 19 -3 4 -6 -2 -5 -13z"/>
<path d="M3851 3554 c0 -11 3 -14 6 -6 3 7 2 16 -1 19 -3 4 -6 -2 -5 -13z"/>
<path d="M3853 3470 c0 -30 2 -43 4 -27 2 15 2 39 0 55 -2 15 -4 2 -4 -28z"/>
<path d="M2908 3473 c12 -2 32 -2 45 0 12 2 2 4 -23 4 -25 0 -35 -2 -22 -4z"/>
<path d="M2801 3431 c-32 -26 -32 -51 -1 -30 13 7 13 9 1 9 -8 0 0 11 19 25
19 14 30 25 24 25 -5 0 -24 -13 -43 -29z"/>
<path d="M3040 3446 c0 -2 8 -10 18 -17 15 -13 16 -12 3 4 -13 16 -21 21 -21
13z"/>
<path d="M2856 3397 c-16 -12 -16 -13 2 -13 10 0 19 6 19 13 0 7 -1 13 -2 13
-1 0 -9 -6 -19 -13z"/>
<path d="M3047 3389 c7 -7 15 -10 18 -7 3 3 -2 9 -12 12 -14 6 -15 5 -6 -5z"/>
<path d="M2751 3372 c-6 -12 -6 -23 0 -33 9 -12 10 -12 6 1 -2 8 0 23 5 33 5
9 6 17 4 17 -3 0 -10 -8 -15 -18z"/>
<path d="M3462 3360 c0 -14 2 -19 5 -12 2 6 2 18 0 25 -3 6 -5 1 -5 -13z"/>
<path d="M2732 3290 c0 -19 2 -27 5 -17 2 9 2 25 0 35 -3 9 -5 1 -5 -18z"/>
<path d="M3122 3270 c0 -14 2 -19 5 -12 2 6 2 18 0 25 -3 6 -5 1 -5 -13z"/>
<path d="M2734 3015 c0 -66 1 -92 3 -57 2 34 2 88 0 120 -2 31 -3 3 -3 -63z"/>
<path d="M3462 3100 c0 -19 2 -27 5 -17 2 9 2 25 0 35 -3 9 -5 1 -5 -18z"/>
<path d="M3851 3074 c0 -11 3 -14 6 -6 3 7 2 16 -1 19 -3 4 -6 -2 -5 -13z"/>
<path d="M4418 3063 c12 -2 32 -2 45 0 12 2 2 4 -23 4 -25 0 -35 -2 -22 -4z"/>
<path d="M3463 3020 c0 -25 2 -35 4 -22 2 12 2 32 0 45 -2 12 -4 2 -4 -23z"/>
<path d="M4344 3038 l-19 -23 23 19 c21 18 27 26 19 26 -2 0 -12 -10 -23 -22z"/>
<path d="M4369 3033 c-13 -16 -12 -17 4 -4 9 7 17 15 17 17 0 8 -8 3 -21 -13z"/>
<path d="M4509 3037 c6 -6 18 -12 27 -13 12 -2 14 0 5 9 -6 6 -18 12 -27 13
-12 2 -14 0 -5 -9z"/>
<path d="M4495 3011 c1 -9 10 -15 20 -13 11 2 14 -1 9 -9 -4 -8 -3 -10 4 -5
18 11 14 20 -12 32 -20 9 -23 8 -21 -5z"/>
<path d="M3121 3004 c0 -11 3 -14 6 -6 3 7 2 16 -1 19 -3 4 -6 -2 -5 -13z"/>
<path d="M4354 2994 c-18 -15 -18 -15 2 -5 12 6 25 7 29 3 5 -4 5 -1 1 6 -9
15 -8 15 -32 -4z"/>
<path d="M4550 3006 c0 -2 7 -9 15 -16 13 -11 14 -10 9 4 -5 14 -24 23 -24 12z"/>
<path d="M4294 2966 c-3 -7 -4 -33 -2 -57 3 -43 4 -42 8 14 5 58 4 68 -6 43z"/>
<path d="M4581 2944 c0 -11 3 -14 6 -6 3 7 2 16 -1 19 -3 4 -6 -2 -5 -13z"/>
<path d="M4577 2901 c-4 -17 -3 -21 5 -13 5 5 8 16 6 23 -3 8 -7 3 -11 -10z"/>
<path d="M2170 2874 c37 -8 88 -9 84 -2 -3 4 -26 7 -52 7 -26 -1 -40 -3 -32
-5z"/>
<path d="M2112 2861 c-11 -7 -10 -9 3 -14 9 -4 13 -3 10 2 -3 5 3 12 12 14 13
3 14 5 3 6 -8 0 -21 -3 -28 -8z"/>
<path d="M4566 2853 c-6 -14 -5 -15 5 -6 7 7 10 15 7 18 -3 3 -9 -2 -12 -12z"/>
<path d="M2295 2848 c28 -16 66 -58 53 -58 -6 0 -9 -3 -5 -6 3 -3 11 -3 17 1
13 8 -52 75 -73 75 -6 0 -3 -6 8 -12z"/>
<path d="M2053 2816 c-21 -18 -23 -24 -10 -22 10 1 17 6 17 10 -1 4 7 14 17
22 10 7 15 14 11 14 -4 0 -20 -11 -35 -24z"/>
<path d="M2247 2829 c7 -7 15 -10 18 -7 3 3 -2 9 -12 12 -14 6 -15 5 -6 -5z"/>
<path d="M4269 2803 c-13 -16 -12 -17 4 -4 9 7 17 15 17 17 0 8 -8 3 -21 -13z"/>
<path d="M4339 2785 c-26 -26 -41 -32 -36 -14 1 6 -4 13 -11 15 -7 1 -8 0 -2
-3 7 -3 4 -11 -7 -20 -10 -8 -12 -11 -4 -7 7 3 16 2 20 -5 5 -7 19 2 41 24 19
19 31 35 28 35 -3 0 -16 -11 -29 -25z"/>
<path d="M4380 2790 c-9 -6 -10 -10 -3 -10 6 0 15 5 18 10 8 12 4 12 -15 0z"/>
<path d="M4500 2790 c-9 -6 -10 -10 -3 -10 6 0 15 5 18 10 8 12 4 12 -15 0z"/>
<path d="M2377 2759 c4 -13 8 -18 11 -10 2 7 -1 18 -6 23 -8 8 -9 4 -5 -13z"/>
<path d="M4244 2771 c4 -5 2 -11 -4 -13 -6 -2 0 -9 12 -17 15 -9 19 -9 11 -1
-6 7 -9 19 -6 26 3 8 0 14 -7 14 -6 0 -9 -4 -6 -9z"/>
<path d="M2015 2751 c-3 -5 -2 -12 3 -15 5 -3 9 1 9 9 0 17 -3 19 -12 6z"/>
<path d="M3853 2660 c0 -47 2 -66 4 -42 2 23 2 61 0 85 -2 23 -4 4 -4 -43z"/>
<path d="M4185 2720 c-8 -13 3 -30 18 -30 8 0 7 3 -2 9 -7 5 -10 14 -7 20 4 6
5 11 2 11 -3 0 -8 -4 -11 -10z"/>
<path d="M2001 2300 c1 -232 4 -418 7 -415 9 9 8 835 -1 835 -4 0 -7 -189 -6
-420z"/>
<path d="M4223 2708 c-2 -5 -2 -12 1 -17 4 -5 0 -12 -6 -14 -7 -3 -8 -6 -2 -6
5 -1 25 10 42 23 l33 24 -32 -2 c-17 0 -33 -4 -36 -8z m31 -10 c-3 -4 -9 -8
-15 -8 -5 0 -9 4 -9 8 0 5 7 9 15 9 8 0 12 -4 9 -9z"/>
<path d="M3122 2680 c0 -14 2 -19 5 -12 2 6 2 18 0 25 -3 6 -5 1 -5 -13z"/>
<path d="M4102 2636 c-34 -35 -62 -68 -62 -73 0 -4 8 2 18 15 12 16 21 19 28
12 8 -8 15 -6 24 5 14 17 35 21 24 3 -5 -7 -3 -8 5 -3 9 5 10 10 2 18 -7 7
-16 5 -30 -7 -10 -9 -22 -13 -25 -8 -5 9 70 89 79 85 6 -4 8 7 2 13 -2 2 -31
-25 -65 -60z"/>
<path d="M3122 2560 c0 -14 2 -19 5 -12 2 6 2 18 0 25 -3 6 -5 1 -5 -13z"/>
<path d="M4066 2562 c-2 -4 4 -8 14 -8 10 0 16 4 14 8 -3 4 -9 8 -14 8 -5 0
-11 -4 -14 -8z"/>
<path d="M4036 2524 c-6 -15 -4 -15 11 -3 10 7 20 15 22 16 2 2 -3 3 -11 3 -9
0 -19 -7 -22 -16z"/>
<path d="M3986 2512 c-3 -5 1 -9 9 -9 8 0 12 4 9 9 -3 4 -7 8 -9 8 -2 0 -6 -4
-9 -8z"/>
<path d="M4050 2475 c-24 -25 -42 -45 -39 -45 3 0 25 20 49 45 24 25 42 45 39
45 -3 0 -25 -20 -49 -45z"/>
<path d="M3845 2491 c-3 -5 -2 -12 3 -15 5 -3 9 1 9 9 0 17 -3 19 -12 6z"/>
<path d="M3938 2461 l-23 -26 26 22 c18 16 28 20 36 12 8 -8 13 -8 17 0 4 6 6
11 4 12 -28 7 -40 3 -60 -20z"/>
<path d="M3955 2449 c-4 -6 -5 -12 -2 -15 2 -3 7 2 10 11 7 17 1 20 -8 4z"/>
<path d="M3121 2414 c0 -11 3 -14 6 -6 3 7 2 16 -1 19 -3 4 -6 -2 -5 -13z"/>
<path d="M3952 2411 c-11 -6 -10 -10 4 -15 9 -4 22 -2 28 4 8 8 6 9 -8 4 -13
-5 -17 -4 -12 4 8 14 6 15 -12 3z"/>
<path d="M3934 2381 c16 -18 15 -20 -12 -42 -15 -14 -32 -31 -36 -39 -5 -8 10
3 32 24 39 37 41 41 25 58 -9 10 -18 18 -21 18 -3 0 3 -8 12 -19z"/>
<path d="M3121 2344 c0 -11 3 -14 6 -6 3 7 2 16 -1 19 -3 4 -6 -2 -5 -13z"/>
<path d="M3843 2327 c-3 -6 -1 -7 5 -3 5 3 12 1 14 -6 3 -8 6 -7 10 3 7 17
-19 22 -29 6z"/>
<path d="M3122 2235 c0 -16 2 -22 5 -12 2 9 2 23 0 30 -3 6 -5 -1 -5 -18z"/>
<path d="M3851 2224 c0 -11 3 -14 6 -6 3 7 2 16 -1 19 -3 4 -6 -2 -5 -13z"/>
<path d="M3853 2140 c0 -25 2 -35 4 -22 2 12 2 32 0 45 -2 12 -4 2 -4 -23z"/>
<path d="M2391 2144 c0 -11 3 -14 6 -6 3 7 2 16 -1 19 -3 4 -6 -2 -5 -13z"/>
<path d="M3851 2064 c0 -11 3 -14 6 -6 3 7 2 16 -1 19 -3 4 -6 -2 -5 -13z"/>
<path d="M3124 1920 c0 -80 2 -112 3 -72 2 39 2 105 0 145 -1 39 -3 7 -3 -73z"/>
<path d="M2392 1960 c0 -14 2 -19 5 -12 2 6 2 18 0 25 -3 6 -5 1 -5 -13z"/>
<path d="M2012 1840 c0 -14 2 -19 5 -12 2 6 2 18 0 25 -3 6 -5 1 -5 -13z"/>
<path d="M3308 1811 l-43 -46 46 44 c26 24 50 42 54 41 4 -1 9 0 11 3 2 2 -3
4 -11 4 -8 0 -33 -21 -57 -46z"/>
<path d="M2352 1815 c0 -16 2 -22 5 -12 2 9 2 23 0 30 -3 6 -5 -1 -5 -18z"/>
<path d="M3390 1805 c-8 -9 -8 -15 -2 -15 12 0 26 19 19 26 -2 2 -10 -2 -17
-11z"/>
<path d="M2743 1750 c0 -25 2 -35 4 -22 2 12 2 32 0 45 -2 12 -4 2 -4 -23z"/>
<path d="M2351 1764 c0 -11 3 -14 6 -6 3 7 2 16 -1 19 -3 4 -6 -2 -5 -13z"/>
<path d="M3351 1759 c-13 -11 -22 -22 -19 -24 2 -3 15 6 28 20 28 30 24 32 -9
4z"/>
<path d="M3231 1707 c-13 -21 -12 -21 5 -5 10 10 16 20 13 22 -3 3 -11 -5 -18
-17z"/>
<path d="M3237 1688 c-21 -21 -31 -35 -22 -32 11 5 14 2 9 -12 -5 -15 -4 -16
4 -4 6 8 9 17 7 21 -3 3 4 14 14 23 12 11 21 13 25 7 4 -5 -2 -14 -11 -20 -10
-6 -13 -11 -7 -11 5 0 23 15 40 32 16 18 19 25 7 15 -12 -11 -24 -14 -27 -9
-3 6 -1 12 6 14 7 3 8 6 3 9 -6 2 -27 -13 -48 -33z"/>
<path d="M3122 1695 c0 -16 2 -22 5 -12 2 9 2 23 0 30 -3 6 -5 -1 -5 -18z"/>
<path d="M2392 1685 c0 -16 2 -22 5 -12 2 9 2 23 0 30 -3 6 -5 -1 -5 -18z"/>
<path d="M2744 1570 c0 -74 1 -105 3 -67 2 37 2 97 0 135 -2 37 -3 6 -3 -68z"/>
<path d="M3143 1646 c0 -15 22 -15 34 0 4 5 4 6 -1 2 -5 -4 -14 -3 -21 2 -8 7
-12 5 -12 -4z"/>
<path d="M2011 1604 c0 -11 3 -14 6 -6 3 7 2 16 -1 19 -3 4 -6 -2 -5 -13z"/>
<path d="M3183 1590 c-15 -17 -33 -28 -39 -26 -8 3 -11 -1 -7 -10 4 -12 14 -7
44 22 22 21 39 39 39 41 0 9 -13 0 -37 -27z"/>
<path d="M3122 1515 c0 -16 2 -22 5 -12 2 9 2 23 0 30 -3 6 -5 -1 -5 -18z"/>
<path d="M3118 1146 c-2 -184 0 -345 4 -358 3 -13 6 138 7 335 1 196 -1 357
-4 357 -2 0 -6 -151 -7 -334z"/>
<path d="M2605 1410 l-130 -6 127 -2 c76 -1 129 2 133 8 3 6 5 9 3 8 -2 -1
-61 -5 -133 -8z"/>
<path d="M2418 1403 c12 -2 30 -2 40 0 9 3 -1 5 -23 4 -22 0 -30 -2 -17 -4z"/>
<path d="M2012 1360 c0 -14 2 -19 5 -12 2 6 2 18 0 25 -3 6 -5 1 -5 -13z"/>
<path d="M2618 1353 c7 -3 16 -2 19 1 4 3 -2 6 -13 5 -11 0 -14 -3 -6 -6z"/>
<path d="M2397 1333 c-4 -3 -7 -15 -7 -25 0 -11 -4 -17 -8 -14 -4 2 -8 -4 -8
-15 0 -26 14 -10 25 29 10 33 9 37 -2 25z"/>
<path d="M2011 1314 c0 -11 3 -14 6 -6 3 7 2 16 -1 19 -3 4 -6 -2 -5 -13z"/>
<path d="M2742 1300 c0 -14 2 -19 5 -12 2 6 2 18 0 25 -3 6 -5 1 -5 -13z"/>
<path d="M2046 1302 c-2 -4 -1 -14 3 -21 6 -9 11 -10 15 -2 4 6 2 11 -4 11 -6
0 -8 5 -5 10 3 6 4 10 1 10 -3 0 -7 -4 -10 -8z"/>
<path d="M2035 1263 c25 -53 85 -89 85 -50 0 9 -2 9 -8 0 -8 -13 -54 23 -80
63 -7 10 -6 5 3 -13z"/>
<path d="M2329 1250 c-1 -5 -2 -15 -3 -20 0 -6 -8 -15 -16 -20 -8 -5 -12 -12
-8 -15 3 -4 19 6 35 22 16 15 24 25 19 21 -16 -13 -26 -9 -20 7 4 8 3 15 0 15
-3 0 -7 -4 -7 -10z"/>
<path d="M2741 1244 c0 -11 3 -14 6 -6 3 7 2 16 -1 19 -3 4 -6 -2 -5 -13z"/>
<path d="M2262 1200 c7 -11 17 -20 22 -20 5 0 1 9 -9 20 -10 11 -20 20 -22 20
-2 0 2 -9 9 -20z"/>
<path d="M2744 1115 c0 -55 1 -76 3 -47 2 29 2 74 0 100 -2 26 -3 2 -3 -53z"/>
<path d="M2139 1188 c10 -14 26 -18 70 -16 l56 2 -55 3 c-30 3 -61 10 -70 16
-13 11 -13 10 -1 -5z"/>
<path d="M3501 1094 c0 -11 3 -14 6 -6 3 7 2 16 -1 19 -3 4 -6 -2 -5 -13z"/>
<path d="M2743 860 c0 -25 2 -35 4 -22 2 12 2 32 0 45 -2 12 -4 2 -4 -23z"/>
<path d="M2760 810 c-13 -8 -12 -10 3 -10 9 0 17 5 17 10 0 12 -1 12 -20 0z"/>
<path d="M2750 752 c0 -5 6 -16 13 -26 12 -17 14 -17 28 1 13 16 13 17 -3 4
-18 -13 -24 -7 -19 22 0 4 -3 7 -9 7 -5 0 -10 -4 -10 -8z"/>
<path d="M3101 737 c-13 -21 -12 -21 5 -5 10 10 16 20 13 22 -3 3 -11 -5 -18
-17z"/>
<path d="M3054 718 l-19 -23 23 19 c21 18 27 26 19 26 -2 0 -12 -10 -23 -22z"/>
<path d="M3862 715 c0 -16 2 -22 5 -12 2 9 2 23 0 30 -3 6 -5 -1 -5 -18z"/>
<path d="M3070 700 c0 -5 5 -10 10 -10 6 0 10 5 10 10 0 6 -4 10 -10 10 -5 0
-10 -4 -10 -10z"/>
<path d="M3005 650 c-3 -6 1 -7 9 -4 18 7 21 14 7 14 -6 0 -13 -4 -16 -10z"/>
<path d="M2933 633 c9 -2 23 -2 30 0 6 3 -1 5 -18 5 -16 0 -22 -2 -12 -5z"/>
<path d="M3855 570 c3 -5 8 -10 11 -10 2 0 4 5 4 10 0 6 -5 10 -11 10 -5 0 -7
-4 -4 -10z"/>
<path d="M3861 534 c0 -11 3 -14 6 -6 3 7 2 16 -1 19 -3 4 -6 -2 -5 -13z"/>
<path d="M3857 445 c-3 -30 -2 -67 3 -82 6 -21 9 -6 9 55 1 45 -1 82 -3 82 -2
0 -6 -25 -9 -55z"/>
<path d="M3471 338 c-1 -20 14 -24 25 -6 4 6 3 8 -4 4 -5 -3 -13 0 -15 6 -3 8
-6 6 -6 -4z"/>
<path d="M3830 275 c-7 -9 -8 -15 -2 -15 5 0 12 7 16 15 3 8 4 15 2 15 -2 0
-9 -7 -16 -15z"/>
<path d="M3786 236 c2 -11 -5 -20 -17 -23 -10 -3 -19 -9 -19 -15 0 -12 33 6
51 28 8 10 9 15 2 11 -6 -4 -13 -2 -16 5 -2 7 -3 5 -1 -6z"/>
<path d="M3618 183 c7 -3 16 -2 19 1 4 3 -2 6 -13 5 -11 0 -14 -3 -6 -6z"/>
<path d="M3655 180 c-3 -6 1 -7 9 -4 18 7 21 14 7 14 -6 0 -13 -4 -16 -10z"/>
<path d="M3698 183 c6 -2 18 -2 25 0 6 3 1 5 -13 5 -14 0 -19 -2 -12 -5z"/>
<path d="M3455 4169 c-4 -6 -5 -12 -2 -15 2 -3 7 2 10 11 7 17 1 20 -8 4z"/>
<path d="M3175 3330 c3 -5 8 -10 11 -10 2 0 4 5 4 10 0 6 -5 10 -11 10 -5 0
-7 -4 -4 -10z"/>
<path d="M4329 3128 c-7 -13 -4 -48 3 -48 5 0 6 10 3 21 -5 16 -4 19 5 14 9
-5 11 -4 6 3 -7 11 -14 15 -17 10z"/>
<path d="M3211 2884 c0 -11 3 -14 6 -6 3 7 2 16 -1 19 -3 4 -6 -2 -5 -13z"/>
<path d="M2451 2784 c0 -11 3 -14 6 -6 3 7 2 16 -1 19 -3 4 -6 -2 -5 -13z"/>
<path d="M1935 2759 c-4 -6 -5 -12 -2 -15 2 -3 7 2 10 11 7 17 1 20 -8 4z"/>
<path d="M4312 2684 c-22 -15 -31 -39 -11 -32 6 2 10 8 10 13 0 6 10 15 22 22
12 7 17 12 12 13 -6 0 -21 -7 -33 -16z"/>
<path d="M3407 2606 c-4 -10 -5 -21 -2 -24 9 -9 17 6 13 25 -3 17 -4 17 -11
-1z"/>
<path d="M4195 2550 c-3 -5 -1 -10 4 -10 6 0 11 5 11 10 0 6 -2 10 -4 10 -3 0
-8 -4 -11 -10z"/>
<path d="M2461 2434 c0 -11 3 -14 6 -6 3 7 2 16 -1 19 -3 4 -6 -2 -5 -13z"/>
<path d="M2462 2390 c0 -14 2 -19 5 -12 2 6 2 18 0 25 -3 6 -5 1 -5 -13z"/>
<path d="M1430 2358 c0 -17 -10 -22 -39 -19 -8 2 -10 -2 -5 -11 5 -9 2 -8 -11
2 -10 8 -16 10 -12 4 4 -7 0 -15 -9 -18 -22 -8 -26 -8 -19 3 3 5 2 12 -3 15
-4 2 -8 -6 -8 -19 0 -20 3 -22 21 -14 20 10 20 10 1 -5 -23 -19 -51 -21 -40
-4 4 7 3 8 -4 4 -9 -5 -9 -13 -2 -26 7 -13 7 -21 -2 -26 -6 -4 -8 -3 -4 4 3 6
2 13 -3 16 -5 3 -8 -7 -7 -23 1 -17 -1 -28 -5 -25 -18 10 -31 -298 -15 -361 9
-40 34 -93 47 -100 7 -5 6 -11 -1 -20 -8 -10 -8 -15 1 -21 7 -4 9 -3 6 3 -4 6
0 14 9 17 10 4 13 2 8 -6 -5 -8 -2 -9 9 -5 10 4 16 2 14 -6 -1 -7 5 -12 14
-12 9 0 24 -9 34 -19 13 -12 27 -16 47 -12 20 4 30 1 34 -9 5 -13 10 -12 36 1
17 9 41 13 54 10 18 -5 22 -3 18 8 -4 10 3 17 20 22 14 3 23 11 19 17 -3 6 -1
7 5 3 6 -4 19 2 29 13 9 11 20 18 25 15 4 -3 8 0 8 5 0 6 -6 11 -12 11 -7 1
-4 6 7 13 11 7 20 20 21 30 0 9 1 36 2 60 2 33 5 39 13 27 9 -12 9 -11 3 5 -5
11 -10 67 -12 124 -2 78 0 106 10 112 10 7 10 9 0 9 -9 0 -12 13 -10 40 1 22
-1 43 -5 46 -4 4 -7 -4 -8 -17 0 -21 -2 -20 -13 9 -6 18 -15 30 -20 25 -5 -4
-6 0 -3 9 4 11 2 17 -6 15 -7 -1 -11 6 -11 15 1 11 -4 14 -14 11 -10 -4 -13
-2 -8 5 4 7 1 13 -8 13 -9 1 -20 3 -26 4 -5 1 -17 3 -26 4 -8 0 -13 4 -11 9 3
4 -23 8 -56 10 -34 2 -65 9 -69 15 -5 8 -8 6 -8 -5z m125 -42 c54 -23 104 -65
123 -105 14 -30 17 -66 17 -212 l0 -176 -28 -37 c-48 -63 -99 -89 -170 -90
-50 0 -70 5 -102 26 -99 64 -115 106 -115 295 0 107 4 153 16 181 43 103 163
158 259 118z"/>
<path d="M1417 2295 c-8 -8 -17 -11 -21 -8 -8 8 -64 -45 -77 -72 l-10 -20 16
20 c9 11 22 19 28 17 7 -2 9 0 4 4 -4 4 0 16 10 26 18 20 38 25 27 6 -6 -10
-5 -10 8 -1 8 7 18 9 22 5 4 -4 6 0 4 8 -2 12 11 16 57 21 l60 6 -57 1 c-38 1
-61 -3 -71 -13z"/>
<path d="M1568 2282 c9 -10 23 -18 31 -18 7 -1 3 7 -10 17 -31 24 -44 24 -21
1z"/>
<path d="M1620 2239 c0 -5 5 -7 10 -4 6 3 10 8 10 11 0 2 -4 4 -10 4 -5 0 -10
-5 -10 -11z"/>
<path d="M1649 2214 c6 -12 8 -24 5 -26 -2 -3 2 -11 11 -18 10 -8 15 -9 15 -1
0 6 -5 11 -11 11 -5 0 -8 4 -5 9 3 4 -1 17 -10 27 -14 18 -15 18 -5 -2z"/>
<path d="M1616 2201 c-4 -5 -2 -12 3 -15 5 -4 12 -2 15 3 4 5 2 12 -3 15 -5 4
-12 2 -15 -3z"/>
<path d="M1304 2015 c0 -88 2 -123 3 -77 2 46 2 118 0 160 -1 42 -3 5 -3 -83z"/>
<path d="M1654 1836 c-17 -27 -14 -43 6 -31 6 4 9 13 6 20 -3 8 0 16 7 18 7 2
9 8 5 11 -3 4 -14 -4 -24 -18z"/>
<path d="M1310 1845 c0 -5 5 -17 10 -25 5 -8 10 -10 10 -5 0 6 -5 17 -10 25
-5 8 -10 11 -10 5z"/>
<path d="M1336 1802 c-7 -11 39 -55 81 -76 35 -18 110 -21 133 -6 13 9 13 10
0 10 -10 0 -11 3 -4 8 8 5 6 12 -6 24 -16 17 -17 17 -15 0 0 -9 4 -23 9 -30 5
-9 -5 -12 -38 -12 -47 0 -99 17 -91 31 3 4 0 11 -6 15 -8 4 -9 3 -5 -4 4 -7 3
-12 -2 -12 -11 0 -41 32 -40 43 0 14 -10 19 -16 9z"/>
<path d="M1613 1775 c0 -8 4 -15 9 -15 4 0 8 4 8 9 0 6 -4 12 -8 15 -5 3 -9
-1 -9 -9z"/>
<path d="M1562 1771 c-11 -7 -11 -9 2 -14 10 -4 16 -1 16 8 0 17 -1 17 -18 6z"/>
<path d="M1582 1744 c-14 -16 -5 -18 17 -5 7 5 9 11 5 14 -5 3 -15 -1 -22 -9z"/>
<path d="M3985 2340 c-10 -11 -13 -20 -8 -20 13 0 38 29 31 35 -3 3 -13 -4
-23 -15z"/>
<path d="M3285 1931 c-3 -5 -2 -12 3 -15 5 -3 9 1 9 9 0 17 -3 19 -12 6z"/>
<path d="M3204 1825 c1 -22 18 -24 24 -3 3 10 1 9 -6 -1 -8 -12 -11 -11 -15 5
-4 17 -4 17 -3 -1z"/>
<path d="M1668 1726 c-10 -7 -15 -16 -12 -19 4 -3 13 1 21 9 20 19 13 26 -9
10z"/>
<path d="M1460 1660 c0 -5 5 -10 11 -10 5 0 7 5 4 10 -3 6 -8 10 -11 10 -2 0
-4 -4 -4 -10z"/>
<path d="M3227 1570 c-14 -13 -15 -20 -6 -26 8 -4 10 -3 5 4 -10 16 6 15 24 0
12 -11 12 -10 2 4 -10 13 -10 17 0 20 7 3 8 7 3 10 -6 3 -18 -3 -28 -12z"/>
<path d="M3165 689 c-4 -6 -5 -12 -2 -15 2 -3 7 2 10 11 7 17 1 20 -8 4z"/>
<path d="M3186 673 c-6 -14 -5 -15 5 -6 7 7 10 15 7 18 -3 3 -9 -2 -12 -12z"/>
<path d="M3880 205 c-7 -9 -8 -15 -2 -15 5 0 12 7 16 15 3 8 4 15 2 15 -2 0
-9 -7 -16 -15z"/>
<path d="M3496 192 c-3 -5 1 -9 9 -9 8 0 12 4 9 9 -3 4 -7 8 -9 8 -2 0 -6 -4
-9 -8z"/>
<path d="M3570 125 c0 -8 2 -15 4 -15 2 0 6 7 10 15 3 8 1 15 -4 15 -6 0 -10
-7 -10 -15z"/>
<path d="M88 83 c7 -3 16 -2 19 1 4 3 -2 6 -13 5 -11 0 -14 -3 -6 -6z"/>
</g>
</svg>
